<svg width="152" height="140" viewBox="0 0 152 140" fill="none" xmlns="http://www.w3.org/2000/svg">
<g id="logo" clip-path="url(#clip0_7_477)">
<path id="Vector" d="M128.02 140H19.9925C8.96806 140 0 131.724 0 121.558V22.4023C0 12.2371 8.96806 3.96075 19.9925 3.96075H85.6935V6.15863H19.9925C10.179 6.15863 2.19346 13.4391 2.19346 22.4023V121.558C2.19346 130.522 10.179 137.802 19.9925 137.802H128.032C137.845 137.802 145.831 130.51 145.831 121.558V76.1357H148.024V121.558C148.024 131.724 139.056 140 128.032 140H128.02ZM105.218 3.06787C105.48 3.57155 105.617 4.15536 105.617 4.83074C105.617 5.63205 105.355 6.36468 104.841 7.00572C104.326 7.65822 103.63 8.09321 102.761 8.32216C102.384 8.42518 101.985 8.49387 101.539 8.53966C101.093 8.58545 100.602 8.60834 100.065 8.60834V12.0998H98.7286C98.7286 11.7678 98.74 11.1611 98.7514 10.2682C98.7514 9.37531 98.7629 7.99019 98.7629 6.12428C98.7629 5.52903 98.7629 4.7964 98.7629 3.93786C98.7629 3.07931 98.7514 2.11774 98.7286 1.0646C98.9685 1.0646 99.197 1.0646 99.4255 1.0646H99.9853C100.933 1.0646 101.745 1.12183 102.407 1.24775C103.07 1.37367 103.63 1.57972 104.087 1.8659C104.589 2.17498 104.966 2.58708 105.229 3.09076L105.218 3.06787ZM104.212 4.83074C104.212 4.26983 104.087 3.7776 103.824 3.38839C103.561 2.98774 103.173 2.67866 102.636 2.43827C102.304 2.3009 101.95 2.20932 101.562 2.17498C101.173 2.14064 100.785 2.11774 100.374 2.11774H100.065C100.065 2.17498 100.065 2.58708 100.054 3.35405C100.054 4.12101 100.042 4.72772 100.042 5.17416C100.042 5.58626 100.042 6.06705 100.042 6.61652C100.042 7.17743 100.042 7.48651 100.042 7.56664H100.374C100.739 7.56664 101.128 7.54375 101.55 7.49796C101.962 7.45217 102.316 7.36059 102.613 7.22322C103.127 7.00572 103.527 6.69665 103.79 6.30744C104.064 5.91823 104.201 5.426 104.201 4.84219L104.212 4.83074ZM112.495 0.812755H112.506L114.426 2.94195L115.157 2.38103L112.998 0H111.981L109.833 2.38103L110.564 2.94195L112.483 0.812755H112.495ZM115.488 5.56337C115.648 5.98692 115.728 6.59362 115.728 7.39493C115.728 8.75715 115.728 9.86754 115.728 10.7261C115.728 11.5846 115.728 12.0425 115.728 12.1112C115.671 12.1112 115.419 12.1341 114.962 12.1684C114.506 12.2028 113.923 12.2257 113.203 12.2257C112.758 12.2257 112.301 12.1799 111.844 12.0998C111.387 12.0196 110.998 11.8937 110.667 11.7449C110.233 11.5388 109.867 11.2641 109.605 10.9092C109.33 10.5544 109.193 10.1308 109.193 9.63859C109.193 9.11202 109.353 8.66558 109.673 8.27637C109.993 7.88716 110.438 7.58953 111.01 7.34914C111.364 7.20033 111.844 7.06296 112.438 6.94849C113.032 6.83401 113.717 6.74244 114.471 6.6852C114.437 6.26165 114.334 5.90679 114.151 5.63205C113.969 5.35732 113.706 5.15127 113.352 5.00245C113.112 4.89943 112.838 4.83074 112.541 4.7964C112.244 4.76206 111.901 4.73917 111.501 4.73917C111.25 4.73917 111.044 4.73917 110.873 4.75061C110.701 4.75061 110.461 4.77351 110.164 4.7964L110.301 3.69747C110.381 3.69747 110.541 3.68602 110.793 3.66312C111.033 3.65168 111.375 3.64023 111.798 3.64023C112.449 3.64023 113.02 3.70891 113.534 3.84628C114.037 3.98365 114.46 4.20114 114.803 4.49877C115.111 4.78496 115.351 5.13982 115.511 5.56337H115.488ZM114.471 8.66558C114.471 8.37939 114.471 8.04742 114.471 7.68111C114.231 7.68111 113.809 7.73835 113.203 7.82993C112.598 7.91006 112.095 8.03598 111.684 8.19624C111.375 8.31071 111.101 8.48242 110.861 8.71137C110.621 8.94031 110.507 9.22649 110.507 9.56991C110.507 9.94767 110.61 10.2453 110.815 10.4742C111.021 10.7032 111.295 10.8749 111.649 11.0008C111.924 11.0924 112.221 11.1611 112.541 11.2069C112.872 11.2527 113.215 11.2641 113.569 11.2641C113.683 11.2641 113.809 11.2641 113.969 11.2641C114.129 11.2641 114.3 11.2641 114.471 11.2527C114.471 11.2183 114.471 11.0352 114.471 10.7032C114.471 10.3827 114.471 9.93622 114.471 9.38675V8.67702V8.66558ZM122.582 1.79722L121.394 1.75143L121.314 3.70891L119.864 3.65168L119.829 4.61325L121.212 4.67048C121.177 5.70074 121.132 6.57073 121.097 7.26901C121.063 7.96729 121.029 8.61979 121.006 9.22649C120.972 10.1995 121.223 10.9321 121.783 11.4244C122.343 11.9166 123.177 12.1799 124.308 12.2257C124.422 12.2257 124.547 12.2257 124.696 12.2257C124.844 12.2257 124.947 12.2257 124.982 12.2257L125.176 11.184C125.176 11.184 125.05 11.184 124.913 11.184C124.776 11.184 124.662 11.184 124.559 11.184C123.759 11.1496 123.177 10.9665 122.8 10.646C122.423 10.314 122.251 9.78741 122.285 9.07768C122.308 8.61979 122.32 8.21913 122.331 7.88716C122.343 7.55519 122.354 7.26901 122.365 7.04007C122.365 6.76533 122.4 6.34178 122.423 5.76942C122.457 5.19706 122.468 4.85364 122.48 4.73917L125.427 4.85364L125.461 3.89207L122.514 3.7776L122.594 1.82011L122.582 1.79722ZM130.614 7.7498C130.362 8.37939 130.123 8.95176 129.905 9.47833C129.654 10.0736 129.346 10.8406 128.957 11.7563C128.569 12.6721 128.363 13.1758 128.317 13.2559L129.517 13.7482C129.517 13.7482 129.666 13.359 129.951 12.6378C130.237 11.9166 130.614 10.9665 131.105 9.77596C131.311 9.27228 131.551 8.71137 131.813 8.07032C132.087 7.44072 132.373 6.75388 132.682 6.02126L131.482 5.52903C131.151 6.37612 130.854 7.1202 130.602 7.7498H130.614ZM133.915 3.26247L132.579 2.713L132.042 4.02944L133.378 4.5789L133.915 3.26247ZM138.508 14.9158C138.451 14.7212 138.348 14.4121 138.177 14.0229C138.017 13.6222 137.891 13.3017 137.811 13.0499C137.743 12.8438 137.708 12.6263 137.708 12.4088C137.708 12.1913 137.788 12.0082 137.937 11.8479C138.04 11.7334 138.188 11.6419 138.382 11.5846C138.576 11.5274 138.794 11.5388 139.056 11.6075C139.228 11.6533 139.41 11.7449 139.616 11.8594C139.81 11.9853 140.005 12.1341 140.187 12.3058C140.45 12.5462 140.69 12.7751 140.896 13.0041C141.101 13.2216 141.215 13.3475 141.25 13.3704L141.924 12.5004C141.924 12.5004 141.81 12.3859 141.661 12.2371C141.513 12.0883 141.307 11.8937 141.067 11.6648C140.793 11.4129 140.496 11.1725 140.164 10.955C139.833 10.7261 139.49 10.5773 139.136 10.4857C138.725 10.3827 138.337 10.3712 137.948 10.4513C137.56 10.5429 137.24 10.7375 136.966 11.0352C136.691 11.3328 136.52 11.6648 136.452 12.0196C136.383 12.3745 136.417 12.7637 136.532 13.1758C136.612 13.462 136.749 13.7939 136.909 14.1832C137.08 14.5609 137.194 14.8814 137.251 15.1447C137.308 15.3737 137.331 15.5912 137.331 15.7743C137.331 15.9575 137.24 16.1292 137.091 16.2895C136.92 16.4726 136.737 16.5871 136.52 16.6214C136.303 16.6672 136.052 16.6329 135.766 16.5298C135.56 16.4612 135.332 16.3352 135.092 16.1521C134.852 15.9689 134.658 15.8201 134.509 15.6827C134.27 15.4538 134.03 15.2249 133.801 14.9845C133.573 14.7441 133.447 14.5953 133.413 14.5609L132.716 15.3851C132.716 15.3851 132.853 15.5339 133.047 15.7514C133.241 15.9689 133.436 16.1635 133.641 16.3467C134.052 16.7244 134.464 17.0335 134.864 17.2625C135.275 17.4914 135.675 17.6517 136.063 17.7204C136.429 17.789 136.794 17.7776 137.16 17.6746C137.525 17.5715 137.834 17.3769 138.12 17.0793C138.394 16.7817 138.554 16.4497 138.611 16.0948C138.668 15.74 138.634 15.3393 138.508 14.9043V14.9158ZM142.369 24.9665C142.746 24.8062 143.021 24.5773 143.215 24.2682C143.409 23.9706 143.535 23.5928 143.603 23.1349C143.637 22.9289 143.66 22.6083 143.672 22.1848C143.683 21.7498 143.706 21.4064 143.74 21.1431C143.763 20.9256 143.82 20.7195 143.912 20.5249C144.003 20.3303 144.152 20.193 144.346 20.1014C144.494 20.0327 144.666 20.0213 144.86 20.0442C145.054 20.067 145.26 20.1701 145.465 20.3418C145.602 20.4563 145.74 20.6051 145.865 20.7997C145.991 20.9943 146.117 21.2003 146.208 21.4407C146.345 21.7727 146.471 22.0818 146.573 22.3565C146.676 22.6312 146.733 22.8029 146.745 22.8373L147.716 22.3222C147.716 22.3222 147.659 22.1733 147.579 21.9787C147.499 21.7727 147.396 21.5209 147.27 21.2118C147.122 20.8684 146.95 20.5364 146.733 20.193C146.528 19.8495 146.276 19.5748 145.991 19.3459C145.66 19.0826 145.305 18.9109 144.917 18.8307C144.529 18.7506 144.152 18.7964 143.775 18.9567C143.398 19.1169 143.112 19.3459 142.906 19.6549C142.701 19.9526 142.564 20.3189 142.506 20.7539C142.472 21.0515 142.449 21.4064 142.449 21.8299C142.449 22.242 142.426 22.5854 142.369 22.8487C142.324 23.0891 142.267 23.2837 142.187 23.4554C142.107 23.6271 141.958 23.7416 141.752 23.8332C141.524 23.9362 141.307 23.9591 141.09 23.9019C140.873 23.8446 140.656 23.7187 140.439 23.5127C140.279 23.3639 140.13 23.1578 139.97 22.8945C139.81 22.6312 139.707 22.4137 139.628 22.2306C139.502 21.933 139.376 21.6239 139.273 21.3034C139.159 20.9828 139.102 20.8111 139.091 20.7539L138.12 21.2232C138.12 21.2232 138.177 21.4178 138.268 21.6926C138.359 21.9673 138.462 22.2306 138.565 22.4824C138.782 22.9975 139.033 23.444 139.319 23.8217C139.605 24.1995 139.902 24.5086 140.222 24.7261C140.53 24.9436 140.873 25.0809 141.238 25.1267C141.604 25.184 141.981 25.1267 142.358 24.9665H142.369ZM148.904 31.045C149.11 31.5258 149.212 32.0294 149.212 32.5446C149.212 33.0597 149.133 33.5061 148.984 33.9068C148.835 34.3074 148.596 34.6509 148.287 34.937C147.933 35.2576 147.499 35.5094 146.996 35.6811C146.493 35.8528 145.865 35.9444 145.145 35.9444V29.9804C144.563 29.9804 144.026 30.1063 143.546 30.3467C143.055 30.5871 142.655 30.9648 142.335 31.4571C142.129 31.7776 141.981 32.1439 141.878 32.5446C141.775 32.9567 141.73 33.4374 141.73 34.0098C141.73 34.3189 141.73 34.6051 141.752 34.8684C141.764 35.1316 141.775 35.2919 141.787 35.3491L140.69 35.2003C140.69 35.2003 140.679 35.0057 140.656 34.7653C140.644 34.5135 140.633 34.2273 140.633 33.8953C140.633 33.0139 140.747 32.2469 140.976 31.5944C141.204 30.9419 141.513 30.4039 141.924 29.9918C142.255 29.637 142.689 29.3279 143.203 29.076C143.717 28.8242 144.3 28.6983 144.94 28.6983C145.58 28.6983 146.128 28.7899 146.631 28.973C147.133 29.1562 147.602 29.4424 148.036 29.8087C148.413 30.1292 148.698 30.5413 148.904 31.0221V31.045ZM148.23 32.4759C148.23 31.8577 148.036 31.3426 147.636 30.9305C147.247 30.5184 146.711 30.2322 146.048 30.072V34.6623C146.733 34.5707 147.259 34.3418 147.647 33.964C148.036 33.5863 148.23 33.094 148.23 32.4759ZM148.984 41.668V40.3859C148.173 40.3859 147.305 40.4088 146.391 40.4088C145.477 40.4088 144.757 40.4088 144.254 40.4088C142.998 40.4088 142.095 40.4088 141.581 40.3974C141.056 40.3974 140.747 40.3859 140.656 40.3859V41.6909C140.759 41.6909 141.25 41.6909 142.141 41.668C143.032 41.6566 143.797 41.6451 144.449 41.6451C144.871 41.6451 145.328 41.6451 145.819 41.6451C146.311 41.6451 146.585 41.6451 146.642 41.6451C147.03 42.4579 147.339 43.1791 147.567 43.7972C147.796 44.4268 147.944 44.8847 148.024 45.1823L149.178 44.9305C149.087 44.5642 148.904 44.0834 148.653 43.4767C148.39 42.87 148.093 42.2633 147.739 41.6337H148.995L148.984 41.668ZM150.583 49.269V50.7228H152V49.269H150.583ZM140.656 50.6427C140.656 50.6427 141.078 50.6427 141.844 50.6198C142.621 50.6083 143.649 50.5969 144.917 50.5969C145.454 50.5969 146.071 50.5969 146.756 50.6083C147.442 50.6083 148.184 50.6312 148.973 50.6427V49.3377C148.059 49.3491 147.27 49.3606 146.585 49.372C145.911 49.372 145.283 49.372 144.723 49.372C144.072 49.372 143.249 49.372 142.267 49.3606C141.273 49.3606 140.736 49.3491 140.644 49.3377V50.6427H140.656ZM148.904 57.5225C149.11 58.0033 149.212 58.507 149.212 59.0221C149.212 59.5372 149.133 59.9836 148.984 60.3843C148.835 60.785 148.596 61.1284 148.287 61.4146C147.933 61.7351 147.499 61.9869 146.996 62.1586C146.493 62.3303 145.865 62.4219 145.145 62.4219V56.4579C144.563 56.4579 144.026 56.5838 143.546 56.8242C143.055 57.0646 142.655 57.4424 142.335 57.9346C142.129 58.2551 141.981 58.6214 141.878 59.0221C141.775 59.4342 141.73 59.915 141.73 60.4873C141.73 60.7964 141.73 61.0826 141.752 61.3459C141.764 61.6092 141.775 61.7694 141.787 61.8267L140.69 61.6778C140.69 61.6778 140.679 61.4832 140.656 61.2428C140.633 61.0024 140.633 60.7048 140.633 60.3729C140.633 59.4914 140.747 58.7244 140.976 58.072C141.204 57.4195 141.513 56.8814 141.924 56.4693C142.255 56.1145 142.689 55.8054 143.203 55.5536C143.717 55.3017 144.3 55.1758 144.94 55.1758C145.58 55.1758 146.128 55.2674 146.631 55.4505C147.133 55.6337 147.602 55.9199 148.036 56.2862C148.413 56.6067 148.698 57.0188 148.904 57.4996V57.5225ZM148.23 58.9534C148.23 58.3352 148.036 57.8201 147.636 57.408C147.247 56.9959 146.711 56.7097 146.048 56.5495V61.1398C146.733 61.0482 147.259 60.8193 147.647 60.4415C148.036 60.0638 148.23 59.5715 148.23 58.9534ZM51.5463 100.77C50.1183 93.3181 49.3757 89.4031 49.33 89.0139L45.2858 88.6934C45.183 88.9223 43.7664 92.139 41.0588 98.3205C38.3513 104.513 35.7808 110.34 33.3475 115.812H33.1875C30.0116 108.841 27.2469 102.682 24.9049 97.3361C22.5629 91.9902 21.2949 89.1055 21.1121 88.7048L16.8508 89.323C16.7023 89.964 15.8569 94.0736 14.3032 101.629C12.7495 109.195 11.0815 116.831 9.29936 124.535L13.4121 125.29C14.6231 118.479 15.9026 111.874 17.2392 105.498C18.5759 99.1218 19.307 95.6991 19.4098 95.2298H19.467C19.9125 96.1799 21.4205 99.511 23.991 105.223C26.5614 110.935 28.9034 116.258 31.0283 121.169H34.7184C36.9804 115.858 39.3224 110.558 41.71 105.28C44.0977 100.003 45.6514 96.6378 46.3483 95.184L46.3826 95.2298L51.9119 125.336L56.276 124.478C54.5395 116.132 52.9629 108.222 51.5349 100.782L51.5463 100.77ZM89.8405 111.851C86.3904 104.342 82.8946 96.592 79.3188 88.5789H75.8343C72.2129 96.592 68.717 104.227 65.3583 111.485C61.9995 118.754 60.0803 122.852 59.6119 123.779L63.1991 125.725C63.3019 125.462 63.8731 124.18 64.8899 121.89C65.9067 119.601 67.3575 116.373 69.2425 112.206H85.088C86.8474 116.087 88.2525 119.258 89.3264 121.73C90.4003 124.203 90.9715 125.531 91.0401 125.725L95.2099 123.562C95.0728 123.253 93.2792 119.349 89.8291 111.84L89.8405 111.851ZM83.6029 108.795H70.7734V108.772C71.6188 106.952 72.6584 104.605 73.9265 101.743C75.1946 98.87 76.2799 96.4546 77.171 94.4971L77.2738 94.4742C78.4277 97.0728 79.5358 99.5568 80.5869 101.938C81.6379 104.319 82.6318 106.597 83.58 108.783V108.806L83.6029 108.795ZM127.781 89.0826C127.781 92.2306 127.815 97.0613 127.883 103.575C127.952 110.088 127.986 114.724 127.986 117.472L127.929 117.495C123.382 111.886 118.527 105.807 113.386 99.2706C108.234 92.7343 105.503 89.2543 105.183 88.8422L101.116 90.7768C101.173 94.3941 101.208 97.8054 101.219 101.034C101.242 104.262 101.242 106.849 101.242 108.795C101.242 113.671 101.219 117.483 101.185 120.219C101.151 122.955 101.128 124.546 101.105 124.993H105.286C105.263 123.917 105.229 119.899 105.16 112.916C105.092 105.933 105.069 100.049 105.069 95.2527L105.126 95.2298C105.857 96.1455 108.565 99.5339 113.249 105.406C117.933 111.279 122.971 117.861 128.363 125.153L131.928 123.413C131.928 123.218 131.905 121.616 131.87 118.628C131.836 115.629 131.813 111.599 131.813 106.517C131.813 104.926 131.825 102.327 131.848 98.7097C131.87 95.0924 131.905 91.8872 131.939 89.0826H127.758H127.781ZM48.1419 30.0376C48.1191 33.861 48.0962 36.6083 48.0962 38.3025C48.0962 43.6827 48.1191 47.9526 48.1533 51.1235C48.1876 54.2944 48.2104 55.9771 48.2104 56.1946L44.4404 58.0376C38.7397 50.3222 33.4046 43.3508 28.4464 37.1349C23.4883 30.919 20.6208 27.3246 19.844 26.363L19.7868 26.3859C19.7868 31.4571 19.8211 37.6844 19.8897 45.0793C19.9582 52.4628 19.9925 56.7326 20.0153 57.8659H15.5941C15.617 57.3966 15.6398 55.7138 15.6741 52.8177C15.7084 49.9215 15.7312 45.8921 15.7312 40.7294C15.7312 38.6688 15.7312 35.9329 15.7084 32.5102C15.6855 29.0989 15.6513 25.4702 15.5941 21.6468L19.9011 19.5977C20.2438 20.0327 23.1342 23.7073 28.5835 30.6329C34.0329 37.5585 39.1624 43.9804 43.9835 49.9215L44.0406 49.8986C44.0406 46.991 44.0063 42.0801 43.9263 35.1889C43.8464 28.2976 43.8121 23.1807 43.8121 19.861H48.2333C48.199 22.8373 48.1648 26.2257 48.1305 30.0491L48.1419 30.0376ZM104.795 61.5405C102.921 66.9207 99.8253 71.9002 95.6326 75.7694C92.1368 78.9861 87.9098 81.4358 83.283 82.5691C78.7133 83.6909 73.9036 83.5307 69.4139 82.1112C59.9089 79.1006 52.9401 70.9616 49.6385 61.758C49.41 61.1055 50.2897 60.5789 50.7809 60.4415C51.3635 60.2813 52.1861 60.3614 52.426 61.0025C54.2196 66.0163 57.11 70.6868 61.0171 74.3156C64.193 77.2576 68.0201 79.4898 72.2129 80.5887C74.0979 81.0809 76.2799 81.3328 78.1535 81.287C80.3812 81.2298 82.1748 80.9207 84.2883 80.2567C85.2365 79.9591 86.1048 79.6157 87.133 79.1235C88.0583 78.677 88.9494 78.1962 89.7263 77.6926C91.5999 76.4906 93.3135 75.0711 94.8443 73.4571C98.146 69.9657 100.556 65.7531 102.144 61.2314C102.544 60.0752 105.32 60.0294 104.795 61.5405ZM135.378 55.7596L131.836 58.6787C131.425 58.2437 129.951 56.5953 127.415 53.7449C125.039 51.0662 121.44 46.9567 116.653 41.462H110.69C110.69 43.7056 110.713 46.4301 110.724 49.6353C110.747 54.0883 110.781 56.8814 110.793 58.0147H106.12C106.143 56.8814 106.166 54.6836 106.2 51.4096C106.234 48.1472 106.257 44.0834 106.257 39.2183V33.964C106.257 31.4113 106.212 26.7522 106.12 19.9984C106.303 19.9984 107.251 19.9755 108.953 19.9411C110.656 19.9068 112.221 19.8839 113.649 19.8839C115.294 19.8839 116.882 19.9755 118.435 20.1701C119.978 20.3532 121.486 20.7653 122.959 21.3949C124.822 22.1848 126.307 23.3524 127.404 24.8978C128.5 26.4432 129.049 28.2518 129.049 30.3352C129.049 33.0253 128.226 35.2576 126.57 37.0433C124.924 38.8291 123.359 40.157 121.886 41.027V41.1643C124.479 44.1979 127.312 47.323 130.408 50.5397C133.493 53.7563 135.161 55.4963 135.378 55.7367V55.7596ZM60.4687 57.3279C59.3491 54.7065 58.7893 51.7645 58.7893 48.4906C58.7893 45.5715 59.2349 42.9272 60.1145 40.5233C61.0056 38.1308 62.3309 35.9787 64.1016 34.067C65.7467 32.2927 67.7003 30.9076 69.9623 29.9346C72.2243 28.9616 74.612 28.4693 77.1253 28.4693C79.6386 28.4693 82.0263 28.9272 84.1969 29.843C86.3675 30.7588 88.2411 32.0294 89.8291 33.6664C91.6798 35.5552 93.085 37.7874 94.0332 40.3516C94.9814 42.9158 95.4613 45.6402 95.4613 48.5364C95.4613 51.6043 94.9357 54.4203 93.8847 56.9845C92.8337 59.5486 91.4742 61.6664 89.7948 63.3262C87.9212 65.1807 85.9448 66.5315 83.8542 67.3671C81.7635 68.2142 79.513 68.6263 77.1139 68.6263C74.7148 68.6263 72.567 68.2257 70.4878 67.4244C68.4086 66.6231 66.5464 65.4211 64.8785 63.8299C63.0506 62.1128 61.5654 59.9379 60.4459 57.3164L60.4687 57.3279ZM63.5989 48.5478C63.5989 51.2723 64.0331 53.7105 64.8899 55.8741C65.7467 58.0262 66.9691 59.8577 68.5342 61.3573C69.6081 62.399 70.8876 63.2347 72.3614 63.8643C73.8351 64.4939 75.4117 64.8144 77.1024 64.8144C78.7932 64.8144 80.3584 64.5053 81.8207 63.8872C83.283 63.269 84.6082 62.3876 85.8077 61.2314C87.2244 59.8692 88.3896 58.1292 89.2922 56.0229C90.1947 53.9166 90.6516 51.5699 90.6516 48.9943C90.6516 46.4186 90.2404 44.1177 89.4178 41.7367C88.5953 39.3671 87.3386 37.3753 85.6592 35.7612C84.5282 34.6623 83.2487 33.8152 81.8435 33.2085C80.4383 32.6018 78.8618 32.3042 77.1253 32.3042C75.3888 32.3042 73.8351 32.6132 72.3728 33.2314C70.9105 33.8495 69.5738 34.7539 68.3857 35.9444C66.8777 37.4554 65.701 39.3328 64.8556 41.565C64.0102 43.7972 63.5989 46.121 63.5989 48.5478Z" fill="#282828"/>
<path id="Vector_2" d="M120.458 30.0948C119.955 28.6524 119.509 27.1643 118.915 25.7563C118.447 24.6459 117.602 23.6042 116.299 23.6385C116.174 23.6385 116.105 23.7301 116.082 23.8331C116.025 23.8331 115.968 23.856 115.922 23.9133C114.928 25.0694 113.923 26.2256 112.929 27.4047C112.129 28.3433 111.364 29.3393 110.896 30.4954C110.027 32.6475 110.621 34.937 112.712 36.0359C114.734 37.1005 117.476 37.856 119.441 36.3106C120.218 35.7039 120.789 34.8339 121.017 33.8609C121.314 32.5788 120.892 31.3082 120.469 30.0948H120.458Z" fill="white"/>
<path id="Vector_3" d="M116.847 25.4473C116.882 25.6304 116.882 25.8136 116.847 25.9967C116.836 26.0769 116.813 26.1455 116.779 26.2142C116.779 26.2371 116.768 26.2486 116.756 26.2715C116.733 26.3173 116.699 26.3516 116.653 26.3859C116.573 26.4317 116.459 26.4546 116.368 26.4546C116.208 26.4546 116.071 26.3745 116.014 26.2257C115.876 25.928 116.162 25.6648 116.368 25.493C116.425 25.4473 116.493 25.4244 116.573 25.4129C116.573 25.4129 116.585 25.4129 116.596 25.4129C116.653 25.4015 116.722 25.39 116.779 25.4015C116.813 25.4015 116.87 25.4244 116.87 25.4587L116.847 25.4473ZM114.688 27.3933C114.688 27.3933 114.665 27.3246 114.643 27.3132H114.62C114.62 27.3017 114.643 27.2788 114.631 27.2559C114.631 27.2216 114.574 27.1987 114.54 27.1987C114.426 27.1872 114.277 27.2216 114.186 27.2903C114.094 27.359 114.003 27.4391 113.946 27.5307C113.889 27.6222 113.854 27.7482 113.911 27.8512C113.946 27.9084 113.98 27.9428 114.026 27.9657C114.083 28 114.163 28 114.231 28C114.357 28 114.494 27.9542 114.597 27.8741C114.643 27.8397 114.688 27.7825 114.7 27.7253C114.723 27.6337 114.7 27.5307 114.7 27.4391C114.7 27.4162 114.7 27.3933 114.711 27.3818L114.688 27.3933ZM116.585 27.5764C116.562 27.5192 116.55 27.462 116.539 27.4047C116.539 27.4047 116.539 27.3818 116.539 27.3704C116.539 27.3475 116.516 27.3246 116.505 27.3132C116.528 27.2788 116.55 27.2445 116.539 27.2101C116.528 27.1643 116.482 27.1186 116.436 27.1071C116.322 27.0728 116.162 27.1071 116.082 27.1987C116.002 27.2903 115.934 27.4047 115.888 27.5192C115.831 27.6451 115.785 27.8054 115.854 27.9313C116.014 28.2633 116.596 28.1259 116.608 27.7596C116.608 27.7024 116.608 27.6337 116.585 27.5764ZM118.653 27.0957C118.653 27.0957 118.653 27.0728 118.653 27.0499C118.664 27.0155 118.63 26.9697 118.595 26.9469C118.55 26.924 118.481 26.9125 118.424 26.924C118.355 26.924 118.287 26.9468 118.241 26.9926L118.196 27.027C118.196 27.027 118.161 27.0728 118.15 27.1071C118.15 27.1071 118.138 27.1071 118.138 27.1186C118.138 27.1186 118.138 27.1415 118.138 27.1529C118.116 27.2101 118.093 27.2674 118.081 27.3246C118.07 27.4047 118.07 27.4849 118.093 27.5536C118.127 27.6337 118.173 27.6909 118.241 27.7367C118.355 27.8054 118.481 27.7939 118.607 27.7711C118.664 27.7711 118.732 27.7253 118.767 27.6795C118.767 27.668 118.79 27.6566 118.801 27.6451C118.812 27.6222 118.824 27.5993 118.812 27.565C118.812 27.3933 118.732 27.2216 118.63 27.0842L118.653 27.0957ZM115.431 29.0074C115.431 29.0074 115.408 28.9616 115.397 28.9387C115.397 28.9272 115.408 28.9158 115.397 28.9043C115.385 28.8585 115.339 28.8128 115.294 28.8013C115.237 28.7784 115.168 28.7784 115.1 28.8013C115.042 28.8242 114.974 28.8471 114.94 28.9043C114.871 28.9959 114.814 29.0989 114.768 29.202C114.723 29.305 114.677 29.4309 114.711 29.5454C114.734 29.6026 114.768 29.6599 114.825 29.6942C114.905 29.74 114.985 29.7629 115.065 29.7514C115.168 29.7514 115.282 29.6942 115.351 29.6141C115.385 29.5683 115.408 29.5225 115.408 29.4767C115.408 29.4538 115.408 29.4309 115.408 29.408C115.408 29.2821 115.408 29.1562 115.408 29.0417L115.431 29.0074ZM118.093 29.1905C118.093 29.1218 118.07 29.0531 118.036 28.9845C118.036 28.8929 118.036 28.8128 118.036 28.7212C118.036 28.6868 117.967 28.6639 117.944 28.6639C117.933 28.6639 117.91 28.6639 117.887 28.6639C117.876 28.6639 117.853 28.6639 117.853 28.6639C117.784 28.6639 117.716 28.6754 117.659 28.7097C117.613 28.7326 117.556 28.7555 117.522 28.8013C117.407 28.973 117.373 29.1905 117.43 29.3851C117.442 29.4309 117.464 29.4652 117.487 29.511C117.499 29.5339 117.522 29.5683 117.533 29.5912C117.556 29.6255 117.613 29.637 117.647 29.6484C117.739 29.6599 117.83 29.6484 117.921 29.6141C117.99 29.5912 118.047 29.5568 118.093 29.4996C118.138 29.4538 118.15 29.3966 118.15 29.3393C118.15 29.2935 118.127 29.2477 118.104 29.2134L118.093 29.1905Z" fill="#282828"/>
</g>
<defs>
<clipPath id="clip0_7_477">
<rect width="152" height="140" fill="white"/>
</clipPath>
</defs>
</svg>
