<svg width="480" height="480" viewBox="0 0 480 480" fill="none" xmlns="http://www.w3.org/2000/svg">
<g id="Group">
<path id="Vector" opacity="0.04" d="M1.15765 479.522H479.522V383.849H96.8305L1.15765 479.522Z" fill="white"/>
<path id="Vector_2" opacity="0.08" d="M96.8304 383.849H479.522V288.176H192.503L96.8304 383.849Z" fill="white"/>
<path id="Vector_3" opacity="0.16" d="M192.503 288.176H479.522V192.503H288.176L192.503 288.176Z" fill="white"/>
<path id="Vector_4" opacity="0.32" d="M288.176 192.503H479.522V96.8306H383.849L288.176 192.503Z" fill="white"/>
<path id="Vector_5" opacity="0.64" d="M383.849 96.8305H479.522V1.15771L383.849 96.8305Z" fill="white"/>
<path id="Vector_6" d="M0 480H480V0L0 480ZM479.043 96.3521H385.007L479.043 2.30571V96.3425V96.3521ZM193.651 287.698L288.367 192.982H479.034V287.698H193.651ZM479.043 288.654V383.37H97.9785L192.695 288.654H479.034H479.043ZM289.324 192.025L384.04 97.3088H479.034V192.025H289.324ZM2.30571 479.043L97.0218 384.327H479.034V479.043H2.30571Z" fill="#B3B3B3"/>
</g>
</svg>
