<svg width="141" height="15" viewBox="0 0 141 15" fill="none" xmlns="http://www.w3.org/2000/svg">
<path id="Vector" d="M14.3278 4.52709C14.2225 4.66108 14.1172 4.82379 13.9928 5.01521C13.8684 5.20663 13.7631 5.38848 13.6865 5.57033C13.2559 5.19706 12.8252 4.75679 12.3945 4.26867C11.9638 3.78055 11.5618 3.27328 11.1981 2.73731C10.8344 2.2109 10.5281 1.70364 10.2697 1.22509C10.0304 1.71321 9.74329 2.23961 9.39873 2.78516C9.05417 3.33071 8.66176 3.86669 8.23107 4.38352C8.0205 4.63237 7.80996 4.86207 7.58983 5.0822H13.0644V6.13501H10.8248V8.29806H13.9067V9.35087H10.8248V14.0694H9.69543V9.35087H6.75715V8.29806H9.69543V6.13501H7.49411V5.17791C7.28355 5.3789 7.07297 5.57989 6.85284 5.76174C6.79541 5.60861 6.69972 5.43633 6.5753 5.25448C6.45088 5.07263 6.33602 4.9195 6.24031 4.79507C6.71886 4.43138 7.17825 3.97197 7.62809 3.43599C8.06835 2.90001 8.47035 2.33533 8.83404 1.75149C9.19774 1.16766 9.47532 0.602974 9.68588 0.0574273H10.777C11.0641 0.612545 11.3991 1.16767 11.7915 1.72278C12.1743 2.28747 12.5955 2.8043 13.0357 3.28285C13.476 3.7614 13.9163 4.17296 14.3469 4.50794L14.3278 4.52709ZM3.94328 10.3271H6.77628V11.3704H3.94328V14.0981H2.82346V11.3704H0V10.3271H2.82346V9.02545H0.679562V3.94325H2.82346V2.66074H0.1723V1.63664H2.82346V0.00957305H3.94328V1.63664H6.62315V2.66074H3.94328V3.94325H6.16373V9.02545H3.94328V10.3271ZM1.7228 6.0393H5.11094V4.86207H1.7228V6.0393ZM1.7228 8.10664H5.11094V6.91026H1.7228V8.10664ZM23.7935 1.70364H20.6734V0.0670004H19.5536V1.70364H16.4717V2.72774H23.7935V1.70364ZM17.113 8.33634H23.1427V14.0311H22.0229V13.208H18.1753V14.1077H17.1034V8.33634H17.113ZM18.1849 9.35087V12.1839H22.0325V9.35087H18.1849ZM21.2668 4.73765C21.1615 5.04392 21.0562 5.31191 20.9509 5.55118L21.8889 5.8096C22.0516 5.47462 22.2239 5.06306 22.4057 4.59408C22.5876 4.11553 22.7599 3.65612 22.9226 3.20629L21.8219 2.94787C21.7645 3.20629 21.6783 3.49342 21.5826 3.80926C21.4869 4.1251 21.3816 4.44095 21.2763 4.74722L21.2668 4.73765ZM17.4288 3.25414C17.5819 3.65612 17.7159 4.08682 17.8404 4.54623C17.9648 5.00563 18.0413 5.41719 18.0701 5.76174L19.0942 5.50333C19.0559 5.17791 18.9697 4.7855 18.8358 4.31652C18.7018 3.84754 18.5582 3.42642 18.3955 3.05315L17.4288 3.25414ZM16.0889 6.98683H24.0041V5.94359H16.0889V6.98683ZM30.1774 1.39737L29.3543 0.861392L29.1533 0.909246H24.6358V14.0981H25.7556V2.00034H28.6556C28.6077 2.11519 28.5695 2.22047 28.5216 2.33533C28.3685 2.73731 28.1962 3.15843 28.0143 3.5987C27.8325 4.03896 27.6411 4.4888 27.4497 4.92907C27.2582 5.36933 27.0572 5.79046 26.8563 6.1733C27.6411 6.84327 28.177 7.47495 28.445 8.04921C28.7226 8.62347 28.8661 9.15945 28.8757 9.638C28.8757 9.92513 28.8374 10.174 28.78 10.3845C28.713 10.5951 28.5982 10.7578 28.4355 10.8631C28.3398 10.9109 28.244 10.9492 28.1292 10.9779C28.0143 11.0067 27.8899 11.0162 27.7655 11.0354C27.6123 11.0449 27.4305 11.0449 27.2295 11.0354C27.0285 11.0354 26.8084 11.0162 26.5691 10.9971C26.6744 11.1598 26.7509 11.3512 26.7988 11.5618C26.8467 11.7723 26.8754 11.9638 26.8945 12.1265C27.1242 12.136 27.3635 12.1456 27.5932 12.1456C27.8229 12.1456 28.043 12.136 28.244 12.1169C28.646 12.069 28.9714 11.9542 29.2394 11.7819C29.5074 11.6001 29.6988 11.3321 29.8232 10.9971C29.9477 10.6525 30.0051 10.241 30.0051 9.76242C30.0051 9.39872 29.9477 9.01588 29.8328 8.63304C29.718 8.2502 29.5266 7.83865 29.249 7.39839C28.9714 6.96769 28.579 6.50828 28.0526 6.02973C28.4068 5.32148 28.78 4.5558 29.1533 3.73269C29.5266 2.90959 29.8711 2.13433 30.1774 1.40694V1.39737ZM39.9972 5.64689C39.7579 5.50333 39.4804 5.42676 39.1741 5.42676C38.8679 5.42676 38.6094 5.50333 38.3606 5.64689C38.1117 5.79046 37.9203 5.99145 37.7672 6.23072C37.6236 6.47 37.547 6.74756 37.547 7.05383C37.547 7.3601 37.6236 7.61852 37.7672 7.86736C37.9108 8.11621 38.1117 8.30763 38.3606 8.46076C38.6094 8.6139 38.8774 8.6809 39.1741 8.6809C39.4708 8.6809 39.7579 8.60433 39.9972 8.46076C40.2365 8.3172 40.4279 8.11621 40.5811 7.86736C40.7342 7.61852 40.8012 7.35053 40.8012 7.05383C40.8012 6.75713 40.7246 6.47 40.5811 6.23072C40.4375 5.99145 40.2365 5.80003 39.9972 5.64689ZM58.8808 11.7053C59.8283 12.404 60.9769 12.9017 62.3168 13.1793C62.1924 13.2941 62.068 13.4377 61.934 13.6195C61.8 13.8014 61.6947 13.9737 61.6086 14.1268C60.1633 13.7727 58.9382 13.1697 57.9524 12.3083C57.0623 11.5426 56.3732 10.5855 55.8755 9.46572H53.9709V12.404C54.3059 12.3562 54.6409 12.2987 54.9854 12.2413C55.7224 12.1265 56.4689 12.002 57.2154 11.868L57.2633 12.8826C56.2105 13.0644 55.1577 13.2463 54.1049 13.4185C53.0521 13.5908 52.1237 13.7535 51.3293 13.8971L51.1474 12.8251C51.6451 12.7581 52.229 12.672 52.8894 12.5763C52.8894 12.5763 52.8989 12.5763 52.9085 12.5763V9.47529H50.9464V8.46076H53.7316V6.90069H51.4154V5.92445H53.7316V4.51751H50.9177V5.25448C50.9177 5.89574 50.8986 6.60399 50.8603 7.36967C50.822 8.13535 50.7359 8.92017 50.6115 9.71457C50.487 10.509 50.3052 11.2842 50.0659 12.0403C49.8267 12.7964 49.5108 13.4855 49.1088 14.1268C49.0323 14.0694 48.927 13.9928 48.8026 13.9162C48.6781 13.8397 48.5537 13.7631 48.4293 13.6961C48.3048 13.6291 48.19 13.5717 48.0847 13.5238C48.4771 12.9209 48.7834 12.27 49.0035 11.5618C49.2237 10.8535 49.3959 10.1357 49.5012 9.39873C49.6065 8.66176 49.6831 7.93436 49.7118 7.23568C49.7501 6.52742 49.7692 5.87659 49.7692 5.26405V0.765683H61.2544V4.53666H58.9574V5.94359H61.5416V6.91984H58.9574V8.47991H62.1732V9.49443H56.957C57.2729 10.0974 57.6748 10.643 58.1725 11.1215C58.3448 11.0162 58.5075 10.9301 58.7085 10.8057C59.0435 10.6047 59.3594 10.3941 59.6752 10.174C59.9815 9.96341 60.2494 9.75285 60.4792 9.56143L61.3501 10.174C60.929 10.4994 60.46 10.8152 59.9528 11.1215C59.5699 11.3512 59.2253 11.5426 58.8904 11.7149L58.8808 11.7053ZM50.9082 3.51256H60.0963V1.73235H50.9082V3.51256ZM54.7844 5.91488H57.8663V4.50794H54.7844V5.91488ZM54.7844 8.46076H57.8663V6.90069H54.7844V8.46076ZM77.0083 0.669971H77.5921V12.6146C77.5921 12.9496 77.5443 13.2176 77.4581 13.4185C77.372 13.6195 77.2188 13.7727 76.9891 13.8684C76.7499 13.9641 76.4436 14.0215 76.0512 14.0407C75.6588 14.0694 75.1706 14.0789 74.5772 14.0598C74.5772 13.9545 74.5485 13.8397 74.5102 13.6961C74.472 13.5621 74.4337 13.4185 74.3763 13.275C74.3284 13.1314 74.271 13.007 74.2231 12.9113C74.6443 12.9209 75.0271 12.9304 75.3908 12.9304H76.1182C76.2426 12.9208 76.3192 12.8921 76.367 12.8443C76.4149 12.7964 76.434 12.7103 76.434 12.5954V5.83831H71.8495V0.660401H76.9796L77.0083 0.669971ZM72.9693 1.54093V2.79473H76.4627V1.54093H72.9693ZM76.4532 4.94821V3.5987H72.9597V4.94821H76.4532ZM66.0591 5.82874V14.1172H64.9297V0.669971H70.5191V5.82874H66.0591ZM69.428 4.93864V3.60827H66.0591V4.93864H69.428ZM66.0591 1.54093V2.79473H69.428V1.54093H66.0591ZM73.2564 10.3941V13.811H72.2323V10.3941H70.0597C70.0406 10.5185 70.031 10.6525 70.0023 10.7961C69.9449 11.1406 69.8396 11.5043 69.6865 11.8872C69.5333 12.2796 69.3228 12.6529 69.0548 13.0261C68.7772 13.3994 68.4231 13.7344 68.002 14.0311C67.9254 13.9162 67.801 13.7918 67.6479 13.6578C67.4947 13.5238 67.3607 13.409 67.2363 13.3324C67.7435 13.0166 68.136 12.6433 68.4039 12.2222C68.6719 11.801 68.8538 11.3799 68.9495 10.9684C68.9973 10.7578 69.0356 10.5664 69.0548 10.3941H67.1501V9.41786H69.0931V7.75251H67.4277V6.80498H75.0367V7.75251H73.2756V9.41786H75.3621V10.3941H73.2756H73.2564ZM72.2323 9.4083V7.74294H70.0884V9.4083H72.2323ZM92.5325 8.79575H94.1212V9.71457H92.5325V12.4423H91.3648V11.7723H87.6895V12.8156C87.6895 13.1601 87.6321 13.4185 87.5268 13.5908C87.4215 13.7631 87.2397 13.8875 87.0004 13.9641C86.7707 14.0502 86.4453 14.0981 86.0242 14.1172C85.603 14.1364 85.0862 14.1459 84.4354 14.1459C84.4067 14.0024 84.3492 13.8397 84.2631 13.6482C84.1865 13.4568 84.1004 13.3037 84.0142 13.1793C84.3205 13.1793 84.6172 13.1984 84.9139 13.1984C85.2106 13.1984 85.4595 13.1984 85.67 13.1984C85.8806 13.1984 86.0337 13.1984 86.1295 13.1984C86.273 13.1888 86.3687 13.1601 86.4262 13.1027C86.4836 13.0548 86.5123 12.9591 86.5123 12.8156V11.7915H81.5354V10.8918H86.5123V9.74328H80.2146V8.82446H86.5123V7.75251H81.6694V6.91026H86.5123V5.81917H82.1192V3.11058H86.5123V2.2109H80.5113V1.26338H86.5123V0.0382849H87.6799V1.26338H93.8054V2.2109H87.6799V3.11058H92.274V5.81917H87.6799V6.91026H92.5229V8.82446L92.5325 8.79575ZM87.6895 3.8954V4.98649H91.1159V3.8954H87.6895ZM86.5314 4.98649V3.8954H83.239V4.98649H86.5314ZM87.6895 8.79575H91.3648V7.7238H87.6895V8.79575ZM91.3648 9.71457H87.6895V10.8631H91.3648V9.71457ZM108.621 12.3753C109.215 12.5763 109.799 12.739 110.382 12.873C110.296 12.9496 110.21 13.0548 110.114 13.1697C110.019 13.2845 109.923 13.409 109.827 13.5334C109.732 13.6578 109.665 13.7727 109.617 13.878C109.033 13.7152 108.449 13.5143 107.846 13.2654C107.243 13.0166 106.669 12.739 106.114 12.4232C105.559 12.1073 105.042 11.7628 104.554 11.3799C104.295 11.1789 104.046 10.9684 103.826 10.7578V14.0981H102.678V10.8152C102.324 11.1406 101.931 11.4565 101.481 11.7628C100.792 12.2317 100.046 12.6337 99.2609 12.9879C98.476 13.342 97.7008 13.6195 96.9351 13.8397C96.8872 13.7344 96.8202 13.6291 96.7341 13.5143C96.648 13.3994 96.5618 13.275 96.4661 13.1601C96.3704 13.0453 96.2843 12.9496 96.1886 12.873C96.9447 12.7007 97.7104 12.4614 98.4856 12.1552C99.2609 11.8489 99.9883 11.4948 100.658 11.1024C101.022 10.8918 101.338 10.6717 101.634 10.442H96.6001V9.46572H102.678V8.33634H98.0358V7.44624H102.678V6.32643H97.2701V5.37891H100.62C100.553 5.17791 100.476 4.95778 100.352 4.69936C100.208 4.37395 100.046 4.08682 99.883 3.83797L100.467 3.73269H96.6288V2.75645H99.0886C98.9833 2.45975 98.8302 2.11519 98.61 1.71321C98.3707 1.27294 98.1219 0.870962 97.8635 0.516835L98.8397 0.181851C99.1077 0.516836 99.3661 0.899677 99.615 1.33037C99.8638 1.76107 100.046 2.13433 100.161 2.45018L99.3566 2.75645H101.242V0.0191424H102.333V2.75645H104.152V0.0191424H105.252V2.75645H107.1L106.525 2.55546C106.669 2.3449 106.812 2.09605 106.966 1.81849C107.119 1.54093 107.253 1.26337 107.387 0.976243C107.521 0.689112 107.626 0.430696 107.712 0.210563L108.889 0.535977C108.66 0.94753 108.42 1.35908 108.171 1.78021C107.951 2.15348 107.741 2.46932 107.549 2.75645H109.933V3.73269H106.774L106.832 3.75183C106.65 4.08682 106.458 4.4218 106.267 4.75679C106.133 4.98649 105.999 5.19705 105.874 5.38847H109.377V6.33601H103.807V7.45581H108.631V8.34591H103.807V9.47529H109.99V10.4515H104.85C105.003 10.576 105.166 10.7004 105.338 10.8152C105.807 11.1311 106.315 11.4182 106.87 11.6862C107.425 11.9542 107.999 12.1839 108.593 12.3849L108.621 12.3753ZM101.807 5.27362L101.357 5.36933H104.946L104.793 5.32148C104.946 5.04392 105.109 4.72808 105.271 4.37395C105.386 4.13468 105.472 3.91454 105.559 3.71355H101.032C101.185 3.93368 101.338 4.18253 101.472 4.46009C101.634 4.77593 101.74 5.04392 101.797 5.28319L101.807 5.27362ZM117.12 13.4664H126.385V12.3944H117.12V13.4664ZM117.685 7.7238L117.551 6.67099C116.967 6.84327 116.383 7.00597 115.79 7.16868V4.18253H117.656V3.09144H115.79V0H114.67V3.09144H112.498V4.18253H114.67V7.47495C114.383 7.55152 114.105 7.62809 113.837 7.70466C113.273 7.85779 112.766 7.99179 112.316 8.10664L112.651 9.22645C113.254 9.05417 113.933 8.84361 114.67 8.62347V12.6433C114.67 12.7486 114.651 12.8156 114.603 12.8539C114.555 12.8921 114.479 12.9208 114.364 12.9304H113.78C113.483 12.9304 113.148 12.9304 112.785 12.9113C112.852 13.0644 112.928 13.2463 112.995 13.4473C113.062 13.6482 113.11 13.8205 113.129 13.9641C113.646 13.9641 114.077 13.9545 114.412 13.9258C114.747 13.8971 115.015 13.8492 115.225 13.7631C115.426 13.6674 115.57 13.5334 115.656 13.3611C115.742 13.1888 115.78 12.94 115.78 12.6242V8.27892C116.412 8.0875 117.053 7.89608 117.675 7.71423L117.685 7.7238ZM125.265 10.4228H118.269V1.10067H125.265V10.4228ZM124.117 6.26901H119.37V9.35087H124.117V6.26901ZM124.117 2.18219H119.37V5.19705H124.117V2.18219ZM139.536 3.61784C139.794 3.18715 140.043 2.74688 140.292 2.29704C140.541 1.8472 140.78 1.39737 141 0.9571L139.756 0.54555C139.612 0.937961 139.43 1.35908 139.201 1.82806C138.971 2.29704 138.741 2.74688 138.492 3.18715C138.244 3.62741 138.014 4.02939 137.784 4.37395L138.78 4.75679C139.019 4.43137 139.258 4.04853 139.516 3.62741L139.536 3.61784ZM135.774 0.00957305H134.52V5.42676H129.572V6.57528H139.603V8.79575H130.079V9.89641H139.603V12.2892H129.266V13.4377H139.603V14.1077H140.809V5.42676H135.774V0.00957305ZM130.855 3.54127C131.056 3.95282 131.218 4.32609 131.333 4.67065L132.434 4.16339C132.319 3.83797 132.156 3.47428 131.946 3.07229C131.735 2.67031 131.496 2.25876 131.228 1.8472C130.96 1.43565 130.682 1.05281 130.405 0.689113L129.362 1.10067C129.639 1.45479 129.907 1.8472 130.166 2.2779C130.424 2.70859 130.654 3.12972 130.864 3.54127H130.855Z" fill="white"/>
</svg>
