<svg width="69" height="14" viewBox="0 0 69 14" fill="none" xmlns="http://www.w3.org/2000/svg">
<path id="Vector" d="M11.6894 1.48284L12.4404 2.20501C12.3826 2.28204 12.3056 2.36868 12.2286 2.46497C12.1515 2.56126 12.0841 2.66717 12.0167 2.75383C11.8242 3.10046 11.5353 3.53376 11.1501 4.04408C10.765 4.55441 10.3221 5.07439 9.82137 5.60397C9.32067 6.13356 8.77185 6.60536 8.18449 7.00977L7.16384 6.19132C7.5201 5.98911 7.87637 5.73876 8.22301 5.44027C8.56965 5.15141 8.88738 4.84329 9.1955 4.51591C9.50362 4.18853 9.76362 3.87076 9.99471 3.56264C10.2258 3.24489 10.4087 2.9753 10.5435 2.73458H1.76206C1.47319 2.73458 1.18434 2.73457 0.895472 2.75383C0.606608 2.77308 0.308122 2.79235 0 2.82123V1.41544C0.269607 1.45395 0.558465 1.49247 0.866587 1.51173C1.17471 1.53099 1.47319 1.55022 1.76206 1.55022H10.6013C10.7072 1.55022 10.8228 1.55022 10.9672 1.55022C11.102 1.55022 11.2464 1.53099 11.3716 1.51173C11.4968 1.49247 11.6123 1.4732 11.6798 1.46357L11.6894 1.48284ZM4.95883 4.80477C4.95883 4.97808 4.95883 5.16105 4.95883 5.36325C4.95883 5.99876 4.92031 6.61497 4.86254 7.20233C4.79514 7.78969 4.66997 8.34818 4.49665 8.87776C4.32333 9.40735 4.04409 9.89842 3.68782 10.351C3.33156 10.8035 2.84049 11.2079 2.2435 11.5642C2.03167 11.7182 1.80059 11.8531 1.55024 11.9686C1.29989 12.0841 1.0688 12.1804 0.856963 12.2575L1.99316 13.1818C2.77309 12.7871 3.42785 12.3634 3.9478 11.8916C4.46776 11.4198 4.89143 10.9191 5.19955 10.3799C5.5173 9.84064 5.74839 9.25327 5.90245 8.61777C6.05651 7.98226 6.16244 7.29864 6.21058 6.56685C6.25872 5.83507 6.28761 5.05511 6.28761 4.22703H4.90106C4.92995 4.42924 4.9492 4.62181 4.95883 4.79513V4.80477ZM25.1119 8.90665C24.592 9.39772 24.0624 9.83101 23.5135 10.1969C22.9647 10.5628 22.4544 10.8613 21.973 11.0924V2.20501C21.973 1.91614 21.973 1.6754 22.0018 1.46357C22.0211 1.26136 22.0307 1.12658 22.0307 1.05917H20.6153C20.6249 1.11695 20.6442 1.25173 20.6634 1.45393C20.6827 1.65614 20.6923 1.90651 20.6923 2.20501V11.4294C20.6923 11.5835 20.6923 11.7375 20.6731 11.8819C20.6538 12.0264 20.6345 12.1708 20.6056 12.2863L21.4241 12.9604C21.4722 12.9219 21.5396 12.8641 21.6359 12.8063C21.7322 12.7485 21.8285 12.6811 21.9537 12.6041C22.5603 12.3056 23.1765 11.9397 23.8217 11.5064C24.4572 11.0731 25.0734 10.5821 25.6608 10.0428C26.2481 9.50363 26.7681 8.9259 27.211 8.32891L26.4888 7.27938C26.0941 7.85711 25.6415 8.38669 25.1216 8.87776L25.1119 8.90665ZM16.6675 1.62727C16.6867 1.81022 16.6964 2.01243 16.6964 2.23389C16.6964 2.66719 16.6964 3.15824 16.6964 3.71671C16.6964 4.27518 16.6771 4.85291 16.6386 5.44027C16.6097 6.02763 16.5615 6.58609 16.5038 7.11567C16.446 7.63563 16.3497 8.07857 16.2438 8.42521C16.0031 9.17625 15.6661 9.87916 15.2135 10.5339C14.761 11.1887 14.2121 11.7471 13.567 12.2093L14.7225 12.9989C15.3676 12.4501 15.9357 11.8145 16.4075 11.0924C16.8889 10.3606 17.2356 9.5903 17.4666 8.76222C17.5822 8.3867 17.6689 7.91489 17.717 7.34679C17.7651 6.77869 17.8229 6.18168 17.8518 5.55581C17.8903 4.92031 17.9096 4.31371 17.9192 3.73598C17.9288 3.15825 17.9385 2.64791 17.9385 2.21461C17.9385 2.06055 17.9385 1.91613 17.9577 1.7717C17.977 1.62727 17.977 1.49246 17.9866 1.37691C17.9962 1.26137 18.0059 1.16508 18.0155 1.10731H16.6001C16.6289 1.271 16.6578 1.44432 16.6771 1.62727H16.6675ZM41.6061 0.66439C41.4424 0.404412 41.298 0.182947 41.1535 0L40.3351 0.337014C40.5662 0.625878 40.7876 0.962884 41.0187 1.35767C41.2498 1.75245 41.452 2.11833 41.6157 2.45533L42.4438 2.08944C42.3475 1.89686 42.2319 1.67541 42.0779 1.41544C41.9238 1.16509 41.7698 0.905101 41.6061 0.654752V0.66439ZM32.3239 3.68782C32.218 4.18852 32.1025 4.68922 31.958 5.19955C31.8232 5.70988 31.6691 6.20095 31.5151 6.67276C31.3514 7.14457 31.1973 7.57788 31.0336 7.98229C30.764 8.61779 30.427 9.31105 30.013 10.0717C29.5989 10.8228 29.1464 11.5257 28.665 12.1708L29.9745 12.7293C30.2634 12.3152 30.5426 11.8723 30.8218 11.4005C31.101 10.9287 31.361 10.4376 31.6018 9.94655C31.8425 9.44585 32.0543 8.96443 32.2372 8.49262C32.4009 8.09784 32.555 7.68379 32.6994 7.22161C32.8439 6.76905 32.9787 6.30686 33.1039 5.8543C33.229 5.40175 33.3349 4.98772 33.4312 4.60257C33.5275 4.22705 33.5949 3.91893 33.6431 3.67821C33.6623 3.56267 33.6912 3.43749 33.7201 3.31231C33.749 3.17751 33.7875 3.05233 33.826 2.91753C33.8645 2.79235 33.8934 2.66717 33.9223 2.55163L32.555 2.26278C32.5165 2.71533 32.4395 3.18712 32.3432 3.68782H32.3239ZM39.8825 3.10048L40.7106 2.73458C40.6047 2.52274 40.4795 2.28203 40.3351 2.02206C40.181 1.76208 40.0366 1.51172 39.8825 1.26137C39.7285 1.01102 39.584 0.799185 39.4492 0.625867L38.6308 0.962881C38.833 1.26137 39.0544 1.60802 39.2952 2.02206C39.5359 2.42647 39.7285 2.79234 39.8825 3.11009V3.10048ZM40.8839 9.66733C40.7106 9.18589 40.5469 8.71408 40.364 8.2519C40.181 7.78971 40.027 7.36604 39.8729 6.98089C39.7092 6.56685 39.5263 6.14318 39.3337 5.69063C39.1411 5.23808 38.9389 4.79514 38.7367 4.35221C38.5345 3.90929 38.3323 3.49526 38.1397 3.10048C37.9471 2.7057 37.7738 2.3783 37.6198 2.11832L36.368 2.53238C36.5413 2.81162 36.7243 3.14861 36.9169 3.54339C37.1094 3.93818 37.302 4.36184 37.5138 4.80477C37.7257 5.24769 37.9183 5.70025 38.1012 6.13355C38.2842 6.57647 38.4575 7.00014 38.6115 7.39492C38.8426 7.94376 39.0545 8.5215 39.2759 9.14737C39.4878 9.77324 39.6899 10.3895 39.8825 10.9961C40.0751 11.6027 40.2292 12.1708 40.3543 12.7004L41.7216 12.2575C41.6157 11.9108 41.5002 11.5064 41.3557 11.0635C41.2113 10.6206 41.0572 10.1584 40.8839 9.67694V9.66733ZM53.5843 1.82947C53.1318 2.26276 52.6503 2.67681 52.14 3.07159C51.6297 3.46637 51.1097 3.83225 50.5801 4.16926C49.7232 4.69885 48.7218 5.22844 47.576 5.73876C46.4205 6.24909 45.1784 6.69203 43.8496 7.0483L44.4658 8.2519C45.2843 7.98229 46.1027 7.69342 46.9019 7.37567C47.7011 7.05792 48.4618 6.72091 49.1647 6.35502C49.5787 6.14319 49.9639 5.93133 50.3394 5.72912V11.439C50.3394 11.6316 50.3394 11.8434 50.3201 12.0553C50.3105 12.2671 50.3009 12.4693 50.2816 12.6522C50.2624 12.8352 50.2528 12.9796 50.2431 13.0855H51.7549C51.7356 12.9796 51.7163 12.8352 51.6971 12.6522C51.6778 12.4693 51.6682 12.2671 51.6682 12.0553C51.6682 11.8434 51.6682 11.6316 51.6682 11.439V4.9107C52.063 4.65072 52.4578 4.40037 52.8333 4.13077C53.3917 3.72636 53.9213 3.30268 54.4317 2.85976C54.942 2.41683 55.4042 1.96427 55.8375 1.50209L54.8072 0.548849C54.4605 0.972517 54.0561 1.39617 53.6036 1.82947H53.5843ZM67.498 6.66312C66.9299 6.4224 66.3232 6.18169 65.6877 5.9506C65.0522 5.71951 64.4264 5.4884 63.8197 5.27657C63.3094 5.10325 62.8472 4.94921 62.4139 4.8144V2.30127C62.4139 2.07981 62.4236 1.81021 62.4524 1.50209C62.4813 1.19397 62.5006 0.924347 62.5199 0.702884H61.0081C61.0466 0.943604 61.0755 1.21322 61.1044 1.52134C61.1333 1.82946 61.1333 2.08945 61.1333 2.31091V11.2753C61.1333 11.5642 61.1333 11.8723 61.1141 12.219C61.0948 12.556 61.0659 12.8545 61.0274 13.0952H62.5199C62.5102 12.9219 62.491 12.7196 62.4717 12.4982C62.4525 12.2767 62.4332 12.0553 62.4332 11.8434C62.4332 11.6316 62.4332 11.439 62.4332 11.2753V9.15698C62.4332 8.61776 62.4332 8.04004 62.4332 7.41417C62.4332 7.00976 62.4332 6.60536 62.4332 6.19132C62.7895 6.29723 63.1746 6.4224 63.6079 6.57646C64.1471 6.76904 64.7056 6.98088 65.2833 7.21197C65.861 7.45269 66.4292 7.68377 66.9876 7.92449C67.5461 8.16521 68.0372 8.40594 68.4801 8.65629L69.0001 7.34679C68.5764 7.13495 68.0853 6.90384 67.5172 6.66312H67.498Z" fill="white"/>
</svg>
