<svg width="56" height="15" viewBox="0 0 56 15" fill="none" xmlns="http://www.w3.org/2000/svg">
<path id="Vector" d="M1.37274 7.23365V7.80805C1.37274 8.00277 1.37273 8.21695 1.3922 8.44087C1.41168 8.66479 1.42142 8.84978 1.43116 8.99582H0C0.0194715 8.86925 0.0389406 8.694 0.0584121 8.47008C0.0778836 8.24616 0.0779026 8.02225 0.0779026 7.78859V2.59943C0.0779026 2.46313 0.0778836 2.27817 0.0584121 2.04451C0.0486763 1.81085 0.0292167 1.62586 0.00974525 1.47982H1.43116C1.42142 1.62586 1.41168 1.80111 1.3922 2.00556C1.37273 2.21001 1.37274 2.41445 1.37274 2.59943V7.2239V7.23365ZM7.25314 1.98607C7.27261 2.20999 7.2726 2.45341 7.2726 2.70654V5.16968C7.2726 5.90959 7.25314 6.55213 7.22393 7.09733C7.19473 7.64254 7.13632 8.12934 7.0487 8.54798C6.96108 8.96662 6.83449 9.33658 6.65924 9.67733C6.484 10.0181 6.2601 10.3491 5.97776 10.6704C5.49097 11.2253 4.92628 11.6634 4.28372 11.9847C3.64116 12.3157 2.9694 12.5591 2.24895 12.7441L3.26148 13.815C3.64117 13.6885 4.05981 13.5229 4.50765 13.3282C4.9555 13.1335 5.39361 12.8804 5.82198 12.5786C6.25036 12.2865 6.63004 11.936 6.97079 11.5466C7.25313 11.2156 7.49652 10.8748 7.70098 10.5146C7.90543 10.1641 8.08066 9.75519 8.20722 9.28788C8.33379 8.8303 8.43116 8.26565 8.49931 7.61336C8.56746 6.96106 8.59668 6.16272 8.59668 5.22809V2.70654C8.59668 2.44367 8.59667 2.20999 8.61614 1.98607C8.63561 1.76215 8.63561 1.54797 8.64534 1.35325H7.18498C7.20445 1.54797 7.22392 1.76215 7.24339 1.98607H7.25314ZM23.6773 6.51321H15.1391C14.8568 6.51321 14.5841 6.51321 14.3018 6.51321C14.0292 6.51321 13.7761 6.49374 13.5424 6.48401C13.3185 6.46454 13.1238 6.45479 12.968 6.44506V7.97358C13.2211 7.9541 13.5327 7.93463 13.9221 7.91516C14.3116 7.89569 14.7107 7.89567 15.1391 7.89567H23.6871C24.0278 7.89567 24.3588 7.90541 24.6607 7.92488C24.9625 7.94435 25.1961 7.96384 25.3519 7.97358V6.44506C25.1864 6.45479 24.9624 6.47425 24.6801 6.49372C24.3978 6.51319 24.0668 6.52293 23.6676 6.52293L23.6773 6.51321ZM41.4256 0.671769C41.2601 0.408904 41.114 0.184979 40.9777 0L40.1502 0.340757C40.3644 0.632829 40.598 0.973578 40.8317 1.37274C41.0751 1.77191 41.2698 2.14185 41.4353 2.4826L42.2726 2.11264C42.1655 1.91792 42.039 1.69402 41.8832 1.43116C41.7274 1.17803 41.5716 0.915153 41.4061 0.662023L41.4256 0.671769ZM40.1502 2.04451C40.0042 1.78165 39.8581 1.52851 39.7024 1.27538C39.5466 1.02225 39.4006 0.808061 39.2643 0.632817L38.4367 0.993035C38.6412 1.28511 38.8651 1.63559 39.1085 2.05423C39.3421 2.46313 39.5369 2.81362 39.6926 3.12516L39.42 2.95964C39.2935 2.99859 39.1474 3.03754 38.9722 3.05701C38.7969 3.08621 38.6022 3.09596 38.3978 3.09596H34.1725C34.2893 2.91098 34.4061 2.726 34.5035 2.55076C34.5814 2.40472 34.6885 2.21973 34.815 1.98607C34.9416 1.75241 35.0681 1.5285 35.2044 1.32405L33.783 0.876211C33.7441 1.08066 33.6662 1.30459 33.5688 1.54798C33.4618 1.79137 33.3741 1.97634 33.2865 2.11264C33.0431 2.58969 32.7121 3.14465 32.2643 3.77747C31.8262 4.4103 31.2712 5.05285 30.6092 5.71488C29.9471 6.37691 29.178 6.98053 28.2823 7.5452L29.3241 8.34354C30.1516 7.76913 30.9013 7.14603 31.5633 6.47426C32.2253 5.8025 32.7997 5.12099 33.2962 4.42975C33.3449 4.3616 33.3839 4.29346 33.4325 4.22531H38.7191C38.6022 4.70236 38.427 5.22809 38.1739 5.80249C37.9207 6.3769 37.6286 6.94158 37.2976 7.50625C37.0834 7.86647 36.8498 8.20722 36.6064 8.53824C36.5869 8.51876 36.5675 8.50902 36.548 8.49928C35.993 8.11959 35.4478 7.74965 34.9026 7.38943C34.3574 7.03894 33.8317 6.71767 33.3255 6.4256L32.4882 7.30181C32.9652 7.60361 33.4812 7.93463 34.0264 8.30459C34.5716 8.67455 35.1266 9.05423 35.6815 9.4534C35.7204 9.48261 35.7399 9.50206 35.7789 9.53127C35.4089 9.93044 35 10.3296 34.5327 10.7093C33.8999 11.235 33.1891 11.7218 32.4005 12.1697C31.612 12.6175 30.726 12.9875 29.7524 13.2795L30.8721 14.2629C32.3422 13.7079 33.6078 13.0459 34.6495 12.2573C35.477 11.6342 36.1878 10.9819 36.8011 10.3101C36.9472 10.4172 37.1029 10.5341 37.2392 10.6412C37.726 11.0306 38.1447 11.3908 38.5049 11.7121L39.42 10.6412C39.0403 10.3296 38.5925 9.98886 38.1057 9.62863C37.9597 9.52154 37.7844 9.40471 37.6384 9.28788C37.9499 8.86924 38.2517 8.44088 38.5146 7.99304C38.8845 7.36995 39.1961 6.7566 39.4687 6.14325C39.7316 5.5299 39.9458 4.95548 40.1015 4.42975C40.1405 4.30319 40.1989 4.16688 40.2573 4.00138C40.3157 3.83587 40.3839 3.7093 40.4617 3.60221L39.7316 3.15437L40.5591 2.78441C40.4423 2.57022 40.3157 2.32684 40.1697 2.06397L40.1502 2.04451ZM55.338 6.48401C55.0556 6.50348 54.7246 6.51321 54.3255 6.51321H45.7872C45.5049 6.51321 45.2323 6.51321 44.9499 6.51321C44.6773 6.51321 44.4242 6.49374 44.1905 6.48401C43.9666 6.46454 43.7719 6.45479 43.6161 6.44506V7.97358C43.8693 7.9541 44.1808 7.93463 44.5702 7.91516C44.9597 7.89569 45.3588 7.89567 45.7872 7.89567H54.3352C54.6759 7.89567 55.0069 7.90541 55.3087 7.92488C55.6106 7.94435 55.8442 7.96384 56 7.97358V6.44506C55.8345 6.45479 55.6106 6.47425 55.3282 6.49372L55.338 6.48401Z" fill="white"/>
</svg>
