<svg width="30" height="15" viewBox="0 0 30 15" fill="none" xmlns="http://www.w3.org/2000/svg">
<path id="Vector" d="M8.74122 3.41214H7.57189V8.49202H3.91053V14.1182H5.04155V13.524H11.7125V14.0895H12.8818V8.49202H8.74122V6.28754H13.9074V5.2428H8.74122V3.42172V3.41214ZM11.7125 12.4792H5.04155V9.51757H11.7125V12.4792ZM8.23323 1.98402H14.1182V3.07667H2.51118V5.96165C2.51118 6.54632 2.49201 7.1885 2.45367 7.88818C2.41534 8.58786 2.34824 9.3067 2.24281 10.0351C2.13738 10.7636 1.98404 11.4824 1.78276 12.1821C1.58149 12.8818 1.32269 13.524 0.996814 14.1086C0.939306 14.0511 0.843442 13.9744 0.709257 13.8882C0.584656 13.8019 0.46007 13.7157 0.335469 13.639C0.210869 13.5623 0.0958467 13.5048 0 13.4665C0.316294 12.9105 0.565495 12.3163 0.747603 11.6837C0.929712 11.0415 1.06391 10.3898 1.15017 9.71886C1.23643 9.04793 1.29394 8.39616 1.32269 7.7444C1.35144 7.10223 1.3706 6.50798 1.3706 5.96165V1.9936H7.04474V0H8.22364V1.9936L8.23323 1.98402ZM29.9713 13.1214C29.8946 13.1981 29.7988 13.3035 29.7125 13.4185C29.6166 13.5336 29.5304 13.6582 29.4537 13.7828C29.3675 13.9074 29.3004 14.032 29.2429 14.147C28.016 13.8498 26.9234 13.4281 25.9745 12.8626C25.0256 12.2971 24.2109 11.6166 23.5304 10.7828C22.9553 10.0831 22.4952 9.26837 22.1023 8.377H19.8882V12.4409C20.3387 12.3642 20.7987 12.2875 21.2876 12.2109C22.1693 12.0671 23.0415 11.9137 23.9233 11.77L23.9713 12.7955C23.1566 12.9393 22.3323 13.0831 21.4984 13.2364C20.6646 13.3898 19.869 13.524 19.1022 13.6486C18.3451 13.7732 17.6454 13.8978 17.0224 14.0128L16.7444 12.9393C17.3003 12.8626 17.9617 12.7572 18.7093 12.6422V8.38659H16.0064V7.36102H18.7093V0.613419H28.2364V1.59104H19.8978V2.8754H27.7668V3.8147H19.8978V5.08946H27.7668V6.02875H19.8978V7.36102H29.7412V8.38659H23.2812C23.6933 9.21087 24.2109 9.94888 24.8626 10.5911C25.1214 10.4473 25.3802 10.3131 25.6582 10.1502C26.1086 9.8818 26.5591 9.60384 27 9.32588C27.4409 9.04793 27.8147 8.76997 28.1214 8.51118L29.0607 9.15335C28.6774 9.43131 28.2652 9.70927 27.8147 9.98723C27.3642 10.2652 26.9042 10.5336 26.4537 10.7828C26.147 10.9457 25.8786 11.0895 25.5911 11.2332C26.77 12.1629 28.2364 12.7859 30 13.1214H29.9713Z" fill="white"/>
</svg>
