<svg width="47" height="15" viewBox="0 0 47 15" fill="none" xmlns="http://www.w3.org/2000/svg">
<path id="Vector" d="M8.01891 12.5412H14.0355V13.6839H0V12.5412H2.12925V5.16687H3.33061V12.5412H6.78822V2.30507H0.595788V1.15253H13.5179V2.30507H8.01891V6.4757H12.9123V7.61846H8.01891V12.5412ZM22.3865 8.91751C22.2791 8.81007 22.1033 8.65379 21.8591 8.42915C21.6051 8.21427 21.3317 7.97007 21.0289 7.71613C20.7261 7.46218 20.4428 7.22777 20.1889 7.00312C20.0717 6.90545 19.974 6.82731 19.8861 6.75894C20.0619 6.53429 20.2573 6.31942 20.4233 6.07523C21.0484 5.20595 21.5563 4.28783 21.9372 3.33064L21.2828 2.89111L21.0679 2.93994H19.7103V0H18.5382V2.93994H16.0671V4.01434H20.4233C20.1694 4.51247 19.8763 5.02037 19.515 5.50873C18.9485 6.27058 18.3234 6.97382 17.6299 7.59892C16.9462 8.2338 16.2429 8.75146 15.5397 9.17145C15.5983 9.23982 15.6764 9.34727 15.7546 9.46447C15.8327 9.59145 15.9108 9.71842 15.9792 9.85516C16.0476 9.9919 16.1062 10.1189 16.155 10.2263C16.8973 9.73796 17.6396 9.14216 18.382 8.42915C18.4406 8.37054 18.4894 8.31193 18.548 8.25333V14.3676H19.7201V7.83334C19.9252 8.02869 20.1303 8.22403 20.355 8.43891C20.6284 8.71239 20.8921 8.96634 21.1265 9.22029C21.3707 9.47424 21.5563 9.67935 21.6931 9.8454L22.4158 8.88821L22.3865 8.91751ZM26.6939 6.25104H30.0245V5.12781H26.6939V0.146503H25.4925V5.12781H22.1521V6.25104H25.4925V12.7951H21.527V13.9379H30.3761V12.7951H26.7037V6.25104H26.6939ZM44.7633 4.15108H34.9375V0.615342H44.7633V4.15108ZM43.5326 1.57253H36.1095V3.18412H43.5326V1.57253ZM45.5545 12.9904C44.988 12.7756 44.4019 12.5705 43.7964 12.3556C43.1908 12.1505 42.6145 11.9649 42.0578 11.8086L41.0615 12.5705C41.5987 12.7267 42.1848 12.9123 42.8001 13.137C43.4154 13.3519 44.0015 13.5765 44.5777 13.8011C45.1442 14.0258 45.6228 14.2309 46.0037 14.4165L47 13.5765C46.5996 13.4007 46.121 13.2053 45.5545 12.9904ZM37.2816 11.7793L38.3267 12.463C37.9067 12.717 37.4183 12.9611 36.8616 13.2151C36.3049 13.469 35.7286 13.6937 35.1426 13.8988C34.5565 14.1039 33.9803 14.27 33.4333 14.4067C33.3356 14.2797 33.2086 14.1332 33.0328 13.9574C32.857 13.7816 32.7105 13.6449 32.5738 13.5472C33.1305 13.4104 33.697 13.2444 34.2928 13.049C34.8886 12.8537 35.4453 12.6388 35.963 12.4142C36.4611 12.1993 36.8616 11.9942 37.1742 11.7793H34.2537V5.03991H45.3689V11.7793H37.2718H37.2816ZM35.416 7.01288H44.1675V5.91895H35.416V7.01288ZM35.416 8.94681H44.1675V7.83334H35.416V8.94681ZM35.416 10.9003H44.1675V9.77702H35.416V10.9003Z" fill="white"/>
</svg>
